<svg xmlns="http://www.w3.org/2000/svg" width="448" height="16" viewBox="0 0 448 16" shape-rendering="crispEdges">
  <g id="item-potion">
    <path d="M6 2H10V5H11V6H12V8H13V12H12V13H4V12H3V8H4V6H6Z" fill="#0D111C"/>
    <rect x="7" y="3" width="2" height="2" fill="#9C712F"/>
    <rect x="6" y="5" width="4" height="2" fill="#95A3B6"/>
    <path d="M5 7H11V8H12V10H4V8H5Z" fill="#745044"/>
    <path d="M4 10H12V12H11V13H5V12H4Z" fill="#C85A32"/>
    <rect x="5" y="7" width="2" height="3" fill="#D3D9DF"/>
  </g>
  <g id="item-elixir" transform="translate(16 0)">
    <path d="M7 2H9V4H10V5H11V7H13V9H12V11H10V13H6V12H5V11H3V9H5V7H6V5H7Z" fill="#0D111C"/>
    <rect x="7" y="3" width="2" height="2" fill="#C9A24B"/>
    <rect x="7" y="5" width="3" height="2" fill="#95A3B6"/>
    <path d="M6 7H10V8H12V9H11V11H9V12H7V11H5V9H6Z" fill="#263E4B"/>
    <path d="M6 8H8V10H7V11H6V10H5V9H6Z" fill="#4F8D8A"/>
    <rect x="7" y="7" width="2" height="1" fill="#D3D9DF"/>
  </g>
  <g id="item-scroll" transform="translate(32 0)">
    <path d="M4 2H11V3H13V6H11V11H13V13H5V12H3V10H5V5H3V3H4Z" fill="#0D111C"/>
    <rect x="4" y="3" width="7" height="2" fill="#C9A24B"/>
    <rect x="5" y="4" width="6" height="8" fill="#E6DDC5"/>
    <rect x="4" y="4" width="2" height="2" fill="#C9A24B"/>
    <rect x="6" y="6" width="4" height="1" fill="#65431F"/>
    <rect x="6" y="8" width="3" height="1" fill="#65431F"/>
    <rect x="6" y="10" width="4" height="1" fill="#65431F"/>
    <rect x="6" y="11" width="6" height="1" fill="#C9A24B"/>
  </g>
  <g id="item-sword" transform="translate(48 0)">
    <rect x="11" y="2" width="3" height="3" fill="#0D111C"/>
    <rect x="10" y="4" width="3" height="3" fill="#0D111C"/>
    <rect x="9" y="6" width="3" height="3" fill="#0D111C"/>
    <rect x="8" y="8" width="3" height="3" fill="#0D111C"/>
    <rect x="5" y="9" width="7" height="3" fill="#0D111C"/>
    <rect x="5" y="11" width="3" height="3" fill="#0D111C"/>
    <rect x="3" y="12" width="4" height="2" fill="#0D111C"/>
    <rect x="12" y="3" width="1" height="1" fill="#D3D9DF"/>
    <rect x="11" y="4" width="1" height="2" fill="#95A3B6"/>
    <rect x="10" y="6" width="1" height="2" fill="#95A3B6"/>
    <rect x="9" y="8" width="1" height="2" fill="#95A3B6"/>
    <rect x="6" y="10" width="5" height="1" fill="#C9A24B"/>
    <rect x="6" y="11" width="1" height="2" fill="#80513B"/>
    <rect x="4" y="12" width="2" height="1" fill="#C9A24B"/>
  </g>
  <g id="item-axe" transform="translate(64 0)">
    <rect x="6" y="6" width="3" height="8" fill="#0D111C"/>
    <path d="M6 2H11V3H13V7H12V8H9V9H7V7H6Z" fill="#0D111C"/>
    <rect x="5" y="12" width="4" height="2" fill="#0D111C"/>
    <path d="M8 3H11V4H12V7H10V8H8V6H7V4H8Z" fill="#5E6C80"/>
    <path d="M8 3H11V4H8V5H7V4H8Z" fill="#D3D9DF"/>
    <rect x="7" y="7" width="1" height="6" fill="#80513B"/>
    <rect x="6" y="12" width="2" height="1" fill="#9C712F"/>
  </g>
  <g id="item-dagger" transform="translate(80 0)">
    <path d="M8 2H10V4H11V8H10V9H12V11H10V13H7V11H5V9H7V8H6V4H8Z" fill="#0D111C"/>
    <path d="M8 3H9V4H10V8H8V7H7V4H8Z" fill="#95A3B6"/>
    <rect x="8" y="3" width="1" height="2" fill="#D3D9DF"/>
    <rect x="6" y="9" width="5" height="1" fill="#C9A24B"/>
    <rect x="8" y="10" width="1" height="2" fill="#80513B"/>
    <rect x="8" y="12" width="1" height="1" fill="#C9A24B"/>
  </g>
  <g id="item-mace" transform="translate(96 0)">
    <path d="M5 2H10V3H12V6H10V8H9V12H11V13H6V12H7V8H5V7H3V4H5Z" fill="#0D111C"/>
    <path d="M5 3H10V4H11V6H9V7H5V6H4V4H5Z" fill="#5E6C80"/>
    <rect x="5" y="3" width="3" height="1" fill="#95A3B6"/>
    <rect x="4" y="5" width="2" height="1" fill="#D3D9DF"/>
    <rect x="8" y="8" width="1" height="4" fill="#80513B"/>
    <rect x="7" y="12" width="3" height="1" fill="#9C712F"/>
  </g>
  <g id="item-spear" transform="translate(112 0)">
    <path d="M10 2H14V5H13V6H12V7H11V8H10V9H9V10H8V11H8V13H5V12H3V10H5V9H6V8H7V7H8V6H9V5H9V3H10Z" fill="#0D111C"/>
    <path d="M12 3H13V4H12V5H11V6H10V5H11V3Z" fill="#D3D9DF"/>
    <path d="M10 6H11V7H10V8H9V9H8V10H7V11H6V10H7V9H8V8H9V7H10Z" fill="#B97946"/>
    <rect x="4" y="10" width="2" height="2" fill="#9C712F"/>
    <rect x="5" y="12" width="2" height="1" fill="#95A3B6"/>
  </g>
  <g id="item-bow" transform="translate(128 0)">
    <rect x="3" y="3" width="2" height="10" fill="#0D111C"/>
    <rect x="4" y="2" width="4" height="3" fill="#0D111C"/>
    <rect x="7" y="3" width="3" height="3" fill="#0D111C"/>
    <rect x="9" y="5" width="3" height="3" fill="#0D111C"/>
    <rect x="10" y="7" width="3" height="4" fill="#0D111C"/>
    <rect x="9" y="10" width="3" height="3" fill="#0D111C"/>
    <rect x="7" y="12" width="3" height="2" fill="#0D111C"/>
    <rect x="4" y="11" width="4" height="3" fill="#0D111C"/>
    <rect x="4" y="4" width="1" height="8" fill="#E6DDC5"/>
    <rect x="5" y="3" width="3" height="1" fill="#B97946"/>
    <rect x="8" y="4" width="2" height="1" fill="#B97946"/>
    <rect x="10" y="6" width="1" height="2" fill="#80513B"/>
    <rect x="11" y="8" width="1" height="2" fill="#B97946"/>
    <rect x="10" y="10" width="1" height="2" fill="#80513B"/>
    <rect x="8" y="12" width="2" height="1" fill="#B97946"/>
    <rect x="5" y="12" width="3" height="1" fill="#B97946"/>
  </g>
  <g id="item-crossbow" transform="translate(144 0)">
    <path d="M3 3H6V4H10V3H13V6H12V7H10V8H9V12H11V13H6V12H7V8H6V7H4V6H2V4H3Z" fill="#0D111C"/>
    <path d="M3 4H6V5H8V6H5V5H3Z" fill="#B97946"/>
    <path d="M8 5H10V4H12V5H11V6H8Z" fill="#B97946"/>
    <rect x="4" y="5" width="8" height="1" fill="#95A3B6"/>
    <rect x="8" y="6" width="1" height="6" fill="#80513B"/>
    <rect x="8" y="9" width="2" height="3" fill="#B97946"/>
    <rect x="6" y="8" width="2" height="2" fill="#C9A24B"/>
  </g>
  <g id="item-staff" transform="translate(160 0)">
    <path d="M4 2H7V4H8V2H11V3H12V6H11V8H9V9H8V13H5V12H6V8H7V7H5V6H4Z" fill="#0D111C"/>
    <path d="M9 3H11V6H10V7H8V6H9Z" fill="#9A8CB7"/>
    <rect x="10" y="3" width="1" height="2" fill="#B8C5D8"/>
    <rect x="5" y="3" width="1" height="3" fill="#80513B"/>
    <path d="M7 7H9V8H8V12H7Z" fill="#80513B"/>
    <rect x="7" y="7" width="2" height="1" fill="#C9A24B"/>
  </g>
  <g id="item-armor-light" transform="translate(176 0)">
    <path d="M5 2H7V4H9V2H11V3H12V5H13V6H12V12H10V13H6V12H4V6H3V5H5Z" fill="#0D111C"/>
    <path d="M5 4H7V5H9V4H11V6H12V7H11V12H9V11H7V12H5V7H4V6H5Z" fill="#80513B"/>
    <rect x="5" y="4" width="2" height="4" fill="#B97946"/>
    <rect x="6" y="5" width="1" height="6" fill="#E6DDC5"/>
    <rect x="9" y="5" width="1" height="6" fill="#E6DDC5"/>
    <rect x="5" y="9" width="6" height="2" fill="#65431F"/>
    <rect x="7" y="9" width="2" height="2" fill="#C9A24B"/>
  </g>
  <g id="item-armor-heavy" transform="translate(192 0)">
    <path d="M5 2H7V3H9V2H11V3H13V5H12V9H11V13H9V12H7V13H4V9H3V5H5Z" fill="#0D111C"/>
    <path d="M6 3H7V5H9V3H10V4H12V6H11V9H10V12H8V11H7V12H5V9H4V6H6Z" fill="#5E6C80"/>
    <rect x="4" y="5" width="3" height="3" fill="#95A3B6"/>
    <rect x="10" y="5" width="2" height="3" fill="#354154"/>
    <path d="M6 5H10V9H9V11H7V9H6Z" fill="#95A3B6"/>
    <rect x="6" y="5" width="2" height="1" fill="#D3D9DF"/>
    <rect x="8" y="6" width="1" height="5" fill="#354154"/>
  </g>
  <g id="item-robe" transform="translate(208 0)">
    <path d="M6 2H10V3H11V5H12V6H13V10H11V9H12V13H4V12H5V9H3V10H2V6H4V5H5V3H6Z" fill="#0D111C"/>
    <path d="M6 3H10V5H11V7H10V9H11V12H5V9H6V7H5V5H6Z" fill="#655B80"/>
    <rect x="6" y="3" width="3" height="2" fill="#9A8CB7"/>
    <rect x="4" y="6" width="2" height="3" fill="#342C4A"/>
    <rect x="10" y="6" width="2" height="3" fill="#342C4A"/>
    <rect x="7" y="5" width="2" height="7" fill="#E6DDC5"/>
    <rect x="5" y="11" width="6" height="1" fill="#9A8CB7"/>
  </g>
  <g id="item-ring" transform="translate(224 0)">
    <path d="M6 2H10V3H11V6H5V3H6Z" fill="#0D111C"/>
    <rect x="4" y="5" width="8" height="3" fill="#0D111C"/>
    <rect x="3" y="7" width="3" height="5" fill="#0D111C"/>
    <rect x="10" y="7" width="3" height="5" fill="#0D111C"/>
    <rect x="5" y="11" width="6" height="3" fill="#0D111C"/>
    <rect x="5" y="6" width="6" height="1" fill="#C9A24B"/>
    <rect x="4" y="7" width="2" height="4" fill="#9C712F"/>
    <rect x="10" y="7" width="2" height="4" fill="#65431F"/>
    <rect x="6" y="12" width="4" height="1" fill="#9C712F"/>
    <path d="M7 3H10V5H6V4H7Z" fill="#9A8CB7"/>
  </g>
  <g id="item-charm" transform="translate(240 0)">
    <rect x="4" y="2" width="8" height="2" fill="#0D111C"/>
    <rect x="3" y="3" width="3" height="5" fill="#0D111C"/>
    <rect x="10" y="3" width="3" height="5" fill="#0D111C"/>
    <rect x="4" y="7" width="3" height="3" fill="#0D111C"/>
    <rect x="9" y="7" width="3" height="3" fill="#0D111C"/>
    <path d="M7 7H10V8H12V11H10V13H6V11H5V9H7Z" fill="#0D111C"/>
    <rect x="5" y="3" width="6" height="1" fill="#9C712F"/>
    <rect x="4" y="4" width="1" height="3" fill="#C9A24B"/>
    <rect x="11" y="4" width="1" height="3" fill="#65431F"/>
    <path d="M7 9H10V10H11V11H9V12H7V11H6V10H7Z" fill="#655B80"/>
    <rect x="7" y="9" width="2" height="1" fill="#B8C5D8"/>
  </g>
  <g id="item-generic" transform="translate(256 0)">
    <path d="M5 2H7V4H9V2H11V5H12V6H13V11H12V13H4V12H3V7H4V5H5Z" fill="#0D111C"/>
    <path d="M5 6H11V7H12V11H11V12H5V11H4V7H5Z" fill="#80513B"/>
    <rect x="5" y="6" width="3" height="4" fill="#B97946"/>
    <rect x="6" y="3" width="4" height="2" fill="#C9A24B"/>
    <rect x="7" y="5" width="2" height="7" fill="#65431F"/>
    <rect x="5" y="9" width="7" height="2" fill="#E6DDC5"/>
  </g>
  <g id="prop-chest" transform="translate(272 0)">
    <path d="M4 4H11V5H13V13H2V7H3V5H4Z" fill="#0D111C"/>
    <path d="M4 5H11V6H12V8H3V6H4Z" fill="#B97946"/>
    <rect x="3" y="8" width="9" height="4" fill="#80513B"/>
    <rect x="3" y="8" width="9" height="1" fill="#4D2F29"/>
    <rect x="5" y="6" width="2" height="6" fill="#65431F"/>
    <rect x="10" y="6" width="2" height="6" fill="#65431F"/>
    <rect x="7" y="8" width="3" height="4" fill="#0D111C"/>
    <rect x="8" y="9" width="1" height="2" fill="#C9A24B"/>
  </g>
  <g id="prop-boss-chest" transform="translate(288 0)">
    <path d="M7 2H9V3H11V5H12V6H13V13H3V12H2V6H4V5H5V3H7Z" fill="#0D111C"/>
    <path d="M7 3H9V4H10V5H11V7H4V6H5V5H6V4H7Z" fill="#C9A24B"/>
    <rect x="3" y="7" width="9" height="2" fill="#65431F"/>
    <rect x="4" y="9" width="8" height="3" fill="#4D2F29"/>
    <rect x="4" y="9" width="2" height="3" fill="#9C712F"/>
    <rect x="10" y="9" width="2" height="3" fill="#9C712F"/>
    <rect x="6" y="8" width="4" height="4" fill="#0D111C"/>
    <path d="M7 9H9V10H10V11H6V10H7Z" fill="#9A8CB7"/>
    <rect x="7" y="9" width="2" height="1" fill="#E6DDC5"/>
  </g>
  <g id="prop-vase" transform="translate(304 0)">
    <rect x="2" y="6" width="4" height="2" fill="#0D111C"/>
    <rect x="2" y="7" width="2" height="4" fill="#0D111C"/>
    <rect x="2" y="10" width="4" height="2" fill="#0D111C"/>
    <rect x="10" y="6" width="4" height="2" fill="#0D111C"/>
    <rect x="12" y="7" width="2" height="4" fill="#0D111C"/>
    <rect x="10" y="10" width="4" height="2" fill="#0D111C"/>
    <rect x="2" y="7" width="1" height="3" fill="#95A3B6"/>
    <rect x="13" y="7" width="1" height="3" fill="#354154"/>
    <path d="M6 2H10V5H11V6H13V8H12V12H10V13H6V12H4V10H3V7H5V5H6Z" fill="#0D111C"/>
    <rect x="7" y="3" width="2" height="3" fill="#95A3B6"/>
    <path d="M5 7H11V8H12V10H11V12H9V13H7V12H5V10H4V8H5Z" fill="#5E6C80"/>
    <rect x="5" y="7" width="2" height="4" fill="#D3D9DF"/>
    <rect x="4" y="9" width="8" height="2" fill="#354154"/>
    <rect x="6" y="9" width="4" height="1" fill="#95A3B6"/>
  </g>
  <g id="prop-box" transform="translate(320 0)">
    <path d="M5 3H12V4H13V11H12V13H4V12H3V11H2V5H4V4H5Z" fill="#0D111C"/>
    <path d="M5 4H12V6H4V5H5Z" fill="#B97946"/>
    <rect x="4" y="6" width="8" height="6" fill="#80513B"/>
    <rect x="11" y="6" width="1" height="6" fill="#4D2F29"/>
    <path d="M4 6H6V8H8V10H10V12H8V11H6V9H4Z" fill="#B97946"/>
    <rect x="4" y="6" width="2" height="2" fill="#65431F"/>
    <rect x="10" y="10" width="2" height="2" fill="#9C712F"/>
  </g>
  <g id="prop-generic" transform="translate(336 0)">
    <path d="M4 2H7V3H9V2H12V5H10V6H11V10H12V11H13V13H3V12H2V10H4V6H3V3H4Z" fill="#0D111C"/>
    <path d="M5 4H7V5H9V3H11V5H9V6H10V11H5V10H5Z" fill="#5E6C80"/>
    <rect x="5" y="4" width="2" height="6" fill="#95A3B6"/>
    <rect x="4" y="10" width="7" height="2" fill="#354154"/>
    <path d="M3 11H6V12H10V11H12V12H13V13H3Z" fill="#5E6C80"/>
    <rect x="5" y="4" width="2" height="1" fill="#D3D9DF"/>
  </g>
  <g id="trap-damage" transform="translate(352 0)">
    <polygon points="2,3 5,4 9,8 5,12 2,13 4,8" fill="#0D111C"/>
    <polygon points="13,3 10,4 6,8 10,12 13,13 11,8" fill="#0D111C"/>
    <polygon points="3,5 7,8 3,11 5,8" fill="#95A3B6"/>
    <polygon points="12,5 8,8 12,11 10,8" fill="#5E6C80"/>
    <polygon points="3,5 5,6 4,7" fill="#D3D9DF"/>
    <polygon points="12,5 10,6 11,7" fill="#95A3B6"/>
  </g>
  <g id="trap-poison" transform="translate(368 0)">
    <path d="M3 8H4V5H7V8H7V2H10V8H10V4H13V8H13V9H14V11H12V12H10V13H5V12H3V11H2V9H3Z" fill="#0D111C"/>
    <rect x="5" y="6" width="1" height="3" fill="#78944F"/>
    <rect x="8" y="3" width="1" height="5" fill="#78944F"/>
    <rect x="11" y="5" width="1" height="4" fill="#55705A"/>
    <path d="M4 9H12V10H11V11H5V10H4Z" fill="#5E6C80"/>
    <rect x="5" y="9" width="2" height="1" fill="#95A3B6"/>
    <rect x="6" y="11" width="4" height="1" fill="#2F4538"/>
  </g>
  <g id="trap-teleport" transform="translate(384 0)">
    <path d="M5 2H9V4H6V5H4V8H2V5H3V4H5Z" fill="#0D111C"/>
    <path d="M13 7V11H12V12H10V13H6V11H9V10H11V7Z" fill="#0D111C"/>
    <rect x="11" y="3" width="2" height="2" fill="#0D111C"/>
    <rect x="3" y="11" width="2" height="2" fill="#0D111C"/>
    <rect x="6" y="3" width="3" height="1" fill="#B8C5D8"/>
    <rect x="3" y="5" width="1" height="3" fill="#9A8CB7"/>
    <rect x="7" y="12" width="3" height="1" fill="#655B80"/>
    <rect x="12" y="8" width="1" height="3" fill="#9A8CB7"/>
    <rect x="11" y="3" width="1" height="1" fill="#B8C5D8"/>
    <rect x="4" y="12" width="1" height="1" fill="#655B80"/>
  </g>
  <g id="trap-alarm" transform="translate(400 0)">
    <rect x="2" y="3" width="3" height="2" fill="#0D111C"/>
    <rect x="2" y="8" width="3" height="2" fill="#0D111C"/>
    <rect x="11" y="3" width="3" height="2" fill="#0D111C"/>
    <rect x="11" y="8" width="3" height="2" fill="#0D111C"/>
    <path d="M7 2H9V3H11V5H12V9H13V11H10V13H6V12H3V10H4V9H5V5H6V3H7Z" fill="#0D111C"/>
    <path d="M7 4H9V5H10V6H11V10H5V6H6V5H7Z" fill="#9C712F"/>
    <rect x="5" y="9" width="6" height="2" fill="#C9A24B"/>
    <rect x="7" y="10" width="2" height="2" fill="#65431F"/>
    <rect x="2" y="4" width="2" height="1" fill="#C9A24B"/>
    <rect x="2" y="8" width="2" height="1" fill="#9C712F"/>
    <rect x="12" y="4" width="2" height="1" fill="#9C712F"/>
    <rect x="12" y="8" width="2" height="1" fill="#65431F"/>
  </g>
  <g id="trap-stun" transform="translate(416 0)">
    <polygon points="8,2 13,2 11,5 13,5 10,8 8,7 9,5 6,5" fill="#0D111C"/>
    <polygon points="6,8 8,9 7,11 10,11 6,13 2,13 4,10 2,10" fill="#0D111C"/>
    <rect x="11" y="9" width="2" height="2" fill="#0D111C"/>
    <rect x="3" y="6" width="2" height="2" fill="#0D111C"/>
    <polygon points="9,3 12,3 10,5 11,5 10,6 9,6 10,4 8,4" fill="#D3D9DF"/>
    <polygon points="6,9 7,10 6,12 8,12 5,13 3,13 5,11 4,11" fill="#95A3B6"/>
    <rect x="11" y="9" width="1" height="1" fill="#E6DDC5"/>
    <rect x="4" y="6" width="1" height="1" fill="#D3D9DF"/>
  </g>
  <g id="trap-ambush" transform="translate(432 0)">
    <path d="M3 2H13V5H12V6H11V5H10V7H8V5H7V6H6V5H5V7H3Z" fill="#0D111C"/>
    <path d="M3 13H13V10H12V9H11V10H10V8H8V10H7V9H6V10H5V8H3Z" fill="#0D111C"/>
    <rect x="4" y="3" width="8" height="2" fill="#5E6C80"/>
    <rect x="4" y="10" width="8" height="2" fill="#354154"/>
    <polygon points="5,5 7,5 6,7" fill="#E6DDC5"/>
    <polygon points="8,5 10,5 9,7" fill="#E6DDC5"/>
    <polygon points="5,10 7,10 6,8" fill="#95A3B6"/>
    <polygon points="8,10 10,10 9,8" fill="#E6DDC5"/>
    <rect x="2" y="5" width="2" height="3" fill="#0D111C"/>
    <rect x="12" y="5" width="2" height="3" fill="#0D111C"/>
    <rect x="2" y="6" width="2" height="1" fill="#C9A24B"/>
    <rect x="12" y="6" width="2" height="1" fill="#9C712F"/>
  </g>
</svg>
